# xmcd
#
# Track frame offsets:
#	150
#	15668
#	28017
#	41692
#	56477
#	70005
#	84568
#	93833
#	114877
#	128471
#	142276
#	153321
#	166388
#	175557
#	195830
#
# Disc length: 2894 seconds
#
# Revision: 0
# Processed by: cddbd v1.5.2PL0 Copyright (c) Steve Scherf et al.
# Submitted via: audiograbber 1.80.04
#
DISCID=b20b4c0f
DTITLE=Die Stoakogler - Wir kommen alle in den Himmel
DYEAR=2001
DGENRE=Polka
TTITLE0=Wir kommen alle in den Himmel
TTITLE1=Heute Nacht ist Stadl Nacht
TTITLE2=Willi will schon wieder
TTITLE3=www.all`s ok
TTITLE4=Der Anti-Ärgerburger
TTITLE5=Rund samma G`sund samma-alles ok
TTITLE6=Almenland Polka
TTITLE7=Stoani Powerhits
TTITLE8=Mir san no immer do
TTITLE9=Vergiss net deine Muattasprach
TTITLE10=In Gasen steht das Stoanihaus
TTITLE11=Solang des Steirerbluat no kocht
TTITLE12=Was steht da drob`n am Olmaroan
TTITLE13=Himmelfahrtsmix
TTITLE14=Nur nach Hause
EXTD=
EXTT0=
EXTT1=
EXTT2=
EXTT3=
EXTT4=
EXTT5=
EXTT6=
EXTT7=
EXTT8=
EXTT9=
EXTT10=
EXTT11=
EXTT12=
EXTT13=
EXTT14=
PLAYORDER=
